HIERARCHY
ROOT hip
{
	OFFSET 0.000000 0.000000 0.000000
	CHANNELS 6 Xposition Yposition Zposition Xrotation Zrotation Yrotation 
	JOINT abdomen
	{
		OFFSET 0.000000 3.422050 0.000000
		CHANNELS 3 Xrotation Zrotation Yrotation 
		JOINT chest
		{
			OFFSET 0.000000 8.486693 -0.684411
			CHANNELS 3 Xrotation Zrotation Yrotation 
			JOINT neck
			{
				OFFSET 0.000000 10.266162 -0.273764
				CHANNELS 3 Xrotation Zrotation Yrotation 
				JOINT head
				{
					OFFSET 0.000000 3.148285 0.000000
					CHANNELS 3 Xrotation Zrotation Yrotation 
					End Site
					{
						OFFSET 0.000000 3.148289 0.000000
					}
				}
			}
			JOINT lCollar
			{
				OFFSET 3.422053 6.707223 -0.821293
				CHANNELS 3 Yrotation Zrotation Xrotation 
				JOINT lShldr
				{
					OFFSET 3.285171 0.000000 0.000000
					CHANNELS 3 Zrotation Yrotation Xrotation 
					JOINT lForeArm
					{
						OFFSET 10.129278 0.000000 0.000000
						CHANNELS 3 Yrotation Zrotation Xrotation 
						JOINT lHand
						{
							OFFSET 8.486692 0.000000 0.000000
							CHANNELS 3 Zrotation Yrotation Xrotation 
							End Site
							{
								OFFSET 4.106464 0.000000 0.000000
							}
						}
					}
				}
			}
			JOINT rCollar
			{
				OFFSET -3.558935 6.707223 -0.821293
				CHANNELS 3 Yrotation Zrotation Xrotation 
				JOINT rShldr
				{
					OFFSET -3.148289 0.000000 0.000000
					CHANNELS 3 Zrotation Yrotation Xrotation 
					JOINT rForeArm
					{
						OFFSET -10.266159 0.000000 0.000000
						CHANNELS 3 Yrotation Zrotation Xrotation 
						JOINT rHand
						{
							OFFSET -8.349810 0.000000 0.000000
							CHANNELS 3 Zrotation Yrotation Xrotation 
							End Site
							{
								OFFSET -4.106464 0.000000 0.000000
							}
						}
					}
				}
			}
		}
	}
	JOINT lThigh
	{
		OFFSET 5.338403 -1.642589 1.368821
		CHANNELS 3 Xrotation Zrotation Yrotation 
		JOINT lShin
		{
			OFFSET -2.053232 -20.121670 0.000000
			CHANNELS 3 Xrotation Zrotation Yrotation 
			JOINT lFoot
			{
				OFFSET 0.000000 -19.300380 -1.231939
				CHANNELS 3 Xrotation Yrotation Zrotation 
				End Site
				{
					OFFSET 0.000000 -2.463878 4.653993
				}
			}
		}
	}
	JOINT rThigh
	{
		OFFSET -5.338403 -1.642589 1.368821
		CHANNELS 3 Xrotation Zrotation Yrotation 
		JOINT rShin
		{
			OFFSET 2.053232 -20.121670 0.000000
			CHANNELS 3 Xrotation Zrotation Yrotation 
			JOINT rFoot
			{
				OFFSET 0.000000 -19.300380 -1.231939
				CHANNELS 3 Xrotation Yrotation Zrotation 
				End Site
				{
					OFFSET 0.000000 -2.463878 4.653993
				}
			}
		}
	}
}
MOTION
Frames: 8
Frame Time: 0.033264
0.000000 43.528500 0.000000 0.000000 0.000000 0.000000 0.000000 0.000000 0.000000 0.000000 0.000000 0.000000 0.000000 0.000000 0.000000 0.000000 0.000000 0.000000 0.000000 0.000000 0.000000 0.000000 0.000000 0.000000 0.000000 0.000000 0.000000 0.000000 0.000000 0.000000 0.000000 0.000000 0.000000 0.000000 0.000000 0.000000 0.000000 0.000000 0.000000 0.000000 0.000000 0.000000 0.000000 0.000000 0.000000 0.000000 0.000000 0.000000 0.000000 0.000000 0.000000 0.000000 0.000000 0.000000 0.000000 0.000000 0.000000 0.000000 0.000000 0.000000 
-2.976697 21.598200 2.820505 28.001480 0.000000 -180.000000 10.418764 -2.121243 -1.136461 8.880307 -2.355484 -0.633760 -0.281520 0.000000 0.000000 -0.459539 0.135751 0.277474 -27.463881 -19.278557 -19.877848 -1.977194 -20.743248 -23.234859 -35.992908 -18.730499 -6.087021 -52.441143 6.634820 -7.266192 29.864941 13.552220 -8.609601 1.040345 40.810120 -21.456022 36.876453 14.493484 -4.938642 27.899614 28.669365 -11.043769 -95.762421 53.885353 -34.841026 110.019630 1.027979 -45.376263 47.022865 31.266510 -14.505195 -93.432831 -51.205509 31.803370 114.780228 -1.301147 45.060913 43.770603 -35.461254 14.637461 
-2.976697 21.462030 2.903943 28.832134 0.000000 -180.000000 11.689366 -2.121092 -1.136385 9.601196 -2.355449 -0.633839 -0.558875 0.000000 0.000000 -0.926411 0.191115 0.580110 -27.212713 -18.334349 -20.549189 -1.904607 -21.043259 -23.275158 -36.576736 -18.932896 -6.272329 -52.364433 6.348639 -8.055105 29.063551 12.606278 -10.224010 1.040346 40.810120 -21.456024 38.913063 15.045266 -5.442608 27.172707 27.685068 -12.810663 -96.625160 53.418430 -35.416241 110.367828 1.056105 -45.357220 48.129864 31.280201 -14.535847 -94.751564 -51.140831 32.851353 115.391769 -1.354392 45.018276 44.229748 -35.485714 14.129931 
-2.976697 21.325861 2.987381 29.664146 0.000000 -180.000000 12.962492 -2.120942 -1.136306 10.322544 -2.355415 -0.633918 -0.836390 0.000000 0.000000 -1.393779 0.249043 0.882799 -26.950802 -17.391239 -21.222561 -1.831638 -21.343248 -23.315937 -37.162205 -19.133574 -6.460114 -52.283749 6.063284 -8.844678 28.233095 11.677330 -11.855796 1.040344 40.810120 -21.456024 40.970688 15.582088 -5.970731 26.483728 26.677341 -14.555089 -97.471184 52.946190 -35.973789 110.716087 1.084124 -45.337994 49.238647 31.293396 -14.566849 -96.067230 -51.060970 33.895927 116.003647 -1.407211 44.975029 44.689198 -35.513523 13.622043 
-2.976697 21.189692 3.070819 30.496780 0.000000 -180.000000 14.237839 -2.120793 -1.136223 11.044295 -2.355380 -0.633997 -1.114061 0.000000 0.000000 -1.861610 0.309539 1.185506 -26.678207 -16.449594 -21.898165 -1.758281 -21.643223 -23.357227 -37.749306 -19.332499 -6.650362 -52.199081 5.778842 -9.634858 27.374144 10.767258 -13.504549 1.040345 40.810120 -21.456026 43.048325 16.102571 -6.522536 25.832729 25.647717 -16.277166 -98.300934 52.468868 -36.514091 111.064392 1.112029 -45.318592 50.349014 31.306097 -14.598191 -97.378868 -50.966034 34.936119 116.615822 -1.459582 44.931217 45.148857 -35.544685 13.113855 
-2.976697 21.053522 3.154257 31.329945 0.000000 -180.000000 15.515089 -2.120646 -1.136137 11.766388 -2.355343 -0.634075 -1.391887 0.000000 0.000000 -2.329868 0.372607 1.488197 -26.394987 -15.509780 -22.576202 -1.684531 -21.943174 -23.399015 -38.338005 -19.529638 -6.843057 -52.110466 5.495399 -10.425597 26.487381 9.877938 -15.169762 1.040345 40.810120 -21.456020 45.144840 16.605370 -7.097426 25.219656 24.597744 -17.977085 -99.114738 51.986671 -37.037525 111.412758 1.139817 -45.299026 51.460762 31.318293 -14.629857 -98.685493 -50.856113 35.970959 117.228256 -1.511499 44.886818 45.608662 -35.579170 12.605437 
-2.976697 20.917353 3.237695 32.163548 0.000000 -180.000000 16.793941 -2.120501 -1.136047 12.488768 -2.355305 -0.634153 -1.669862 0.000000 0.000000 -2.798520 0.438250 1.790836 -26.101183 -14.572163 -23.256840 -1.610382 -22.243095 -23.441315 -38.928276 -19.724939 -7.038180 -52.017937 5.213045 -11.216854 25.573603 9.011207 -16.850805 1.040344 40.810120 -21.456022 47.258999 17.089161 -7.694678 24.644367 23.529011 -19.655155 -99.913078 51.499840 -37.544518 111.761177 1.167489 -45.279297 52.573666 31.329962 -14.661819 -99.986198 -50.731304 36.999527 117.840942 -1.562957 44.841866 46.068531 -35.616997 12.096855 
-2.976697 20.781183 3.321133 32.997509 0.000000 -180.000000 18.074068 -2.120358 -1.135954 13.211381 -2.355267 -0.634230 -1.947986 0.000000 0.000000 -3.267533 0.506471 2.093387 -25.796852 -13.637114 -23.940271 -1.535829 -22.542990 -23.484133 -39.520103 -19.918383 -7.235714 -51.921467 4.931865 -12.008569 24.633718 8.168878 -18.546959 1.040345 40.810120 -21.456022 49.389450 17.552681 -8.313447 24.106628 22.443111 -21.311737 -100.696320 51.008564 -38.035465 112.109619 1.195037 -45.259392 53.687542 31.341116 -14.694077 -101.280006 -50.591732 38.020885 118.453812 -1.613939 44.796356 46.528408 -35.658165 11.588181 
